<svg width="1440" height="729" viewBox="0 0 1440 729" fill="none" xmlns="http://www.w3.org/2000/svg">
<path d="M1703 372L1548.98 280.74H1187.96M1187.96 280.74L1272.11 372M1187.96 280.74H1007.45L924.234 126.44M1187.96 280.74L1045.67 126.44L924.234 126.44M924.234 126.44L872.277 30.1224H787.752M924.234 126.44L802.817 126.44M787.752 30.1224H745.489M787.752 30.1224L783.201 1.00088M787.752 30.1224L802.817 126.44M745.489 30.1224L746.022 14.531L746.499 1M745.489 30.1224H618.682L559.964 126.44M745.489 30.1224L740.747 165.287M559.964 126.44L465.953 280.74H285.437M559.964 126.44L438.547 126.44L285.437 280.74M559.964 126.44L802.817 126.44M285.437 280.74L194.893 372M285.437 280.74H-75.5579L-236 372M-128.277 371.998L-236 371.998M-128.277 371.998L117.757 214.96H428.376M-128.277 371.998L302.616 371.998M428.376 214.96L468.163 165.287H604.455M428.376 214.96L302.616 371.998M428.376 214.96L583.695 214.96M604.455 165.287L583.695 214.96M604.455 165.287H740.747M604.455 165.287L644.413 69.6462L673.115 1H746.499M740.747 165.287H808.893M740.747 165.287L739.013 214.96M808.893 165.287H877.039M808.893 165.287L802.817 126.44M808.893 165.287L841.233 371.999M877.039 165.287L894.313 214.96M877.039 165.287H1013.33L1049.63 214.96M877.039 165.287L819.882 1H746.499M1049.63 214.96H1360.25L1595.28 371.998M1049.63 214.96L894.313 214.96M1049.63 214.96L1164.38 371.998M1595.28 371.998L1703 371.998M1595.28 371.998L1164.38 371.998M-20.5524 371.998L263.726 165.286M263.726 165.286L317.13 126.437H377.829M263.726 165.286L195.58 165.286L117.759 214.959H40.09L-75.5563 280.738M263.726 165.286L468.164 165.286L524.235 95.2547M377.829 126.437H438.547L469.497 95.2547H524.235M377.829 126.437L87.1701 371.997M377.829 126.437L445.08 69.6452H494.904L516.14 48.2561H1065.02L1092.96 69.6452H1142.79L1181.11 95.2544H1235.86L1288.51 126.437M524.235 95.2547L544.748 69.6458H943.453L962.156 95.2547M524.235 95.2547H962.156M962.156 95.2547H1016.89L1045.67 126.437H1167.09L1217.77 165.286M962.156 95.2547L1013.33 165.286L1217.77 165.286M1217.77 165.286L1285.92 165.286L1360.25 214.959H1437.92L1548.98 280.738M1217.77 165.286L1487.55 371.998M1164.38 371.998H1056.68M1056.68 371.998H948.956M1056.68 371.998L1007.45 280.738L917.207 280.738M948.956 371.998L917.207 280.738M948.956 371.998L841.233 371.999M917.207 280.738L894.313 214.96M917.207 280.738H556.193M894.313 214.96L739.013 214.96M583.695 214.96L556.193 280.738M583.695 214.96L739.013 214.96M556.193 280.738L518.063 371.998M556.193 280.738L465.954 280.738L410.34 371.998M518.063 371.998H410.34M518.063 371.998L841.233 371.999M410.34 371.998H302.616M40.0896 214.962L127.434 165.288M127.434 165.288H195.58L256.412 126.44M127.434 165.288L195.694 126.439M256.412 126.44H317.13L360.022 95.2573M256.412 126.44L195.694 126.439M256.412 126.44L305.284 95.2563M360.022 95.2573L305.284 95.2563M360.022 95.2573L395.237 69.6471M360.022 95.2573H469.497L494.904 69.6481H544.747L576.42 30.1226M576.42 30.1226H618.683L628.187 14.532H863.879L872.278 30.1226H914.541L943.453 69.6481H993.277L1016.89 95.2573H1126.37L1167.09 126.44H1227.81L1285.92 165.288H1354.06L1437.92 214.962M576.42 30.1226L534.158 30.1216M576.42 30.1226L588.896 14.531M739.013 214.96L733.509 371.999M195.694 126.439L250.546 95.2563M305.284 95.2563H250.546M305.284 95.2563L345.394 69.6471M395.237 69.6471H445.081L470.392 48.258M395.237 69.6471H345.394M395.237 69.6471L424.663 48.258M470.392 48.258H516.14L534.158 30.1216M470.392 48.258H424.663M470.392 48.258L491.875 30.1216M534.158 30.1216H491.875M534.158 30.1216L549.623 14.531M588.896 14.531L599.733 1.00088H636.415M588.896 14.531H549.623M588.896 14.531H628.187L636.415 1.00088M636.415 1.00088H673.116M250.546 95.2563L295.57 69.6471M345.394 69.6471H295.57M345.394 69.6471L378.914 48.258M424.663 48.258L378.914 48.258M424.663 48.258L449.612 30.1216M491.875 30.1216L449.612 30.1216M491.875 30.1216L510.331 14.531M549.623 14.531L510.331 14.531M549.623 14.531L563.03 1.00088M625.785 371.999L699.111 48.258L703.206 30.1216L709.815 1.00088M295.57 69.6471L333.185 48.258M378.914 48.258L333.185 48.258M378.914 48.258L407.349 30.1216M449.612 30.1216L407.349 30.1216M449.612 30.1216L471.038 14.531L510.331 14.531M510.331 14.531L526.348 1.00088H563.03M563.03 1.00088H599.732M333.185 48.258L365.085 30.1216M407.349 30.1216H365.085M407.349 30.1216L431.765 14.531M1003.35 1.00088H1040.03M1040.03 1.00088H1076.73L1099.57 14.531M1040.03 1.00088L1060.28 14.531L1099.57 14.531M1099.57 14.531L1125.87 30.1216M819.881 1.00088H856.583L863.877 14.531H903.15M903.15 14.531L914.539 30.1216H956.802L993.275 69.6471H1043.12L1379.83 371.999M903.15 14.531L893.265 1.00088M903.15 14.531H981.714L999.084 30.1216H1041.35L1065.02 48.258H1110.77L1142.78 69.6471H1192.63L1235.86 95.2563M929.968 1.00088H966.65M929.968 1.00088H856.584M929.968 1.00088L956.804 30.1216H999.085L1043.12 69.6471H1092.96L1126.37 95.2563H1181.11L1227.81 126.439H1288.51L1354.06 165.287M966.65 1.00088H1003.35L1021.01 14.531M966.65 1.00088L981.716 14.531H1021.01M1021.01 14.531L1041.35 30.1216H1083.61M1021.01 14.531H1060.28L1083.61 30.1216M1083.61 30.1216L1110.77 48.258H1156.52M1083.61 30.1216H1125.87L1156.52 48.258M1156.52 48.258L1192.63 69.6471M365.085 30.1216L392.473 14.531M431.765 14.531L452.963 1.00088M431.765 14.531L392.473 14.531M431.765 14.531L471.037 14.531L489.645 1.00088M452.963 1.00088H489.645M452.963 1.00088L416.262 1.00101L392.473 14.531M489.645 1.00088H526.346" stroke="url(#paint0_linear_1_14)" stroke-width="2" stroke-linecap="round" stroke-linejoin="round"/>
<g filter="url(#filter0_f_1_14)">
<ellipse cx="732" cy="389.5" rx="534" ry="39.5" fill="#12EB82"/>
</g>
<defs>
<filter id="filter0_f_1_14" x="-102" y="50" width="1668" height="679" filterUnits="userSpaceOnUse" color-interpolation-filters="sRGB">
<feFlood flood-opacity="0" result="BackgroundImageFix"/>
<feBlend mode="normal" in="SourceGraphic" in2="BackgroundImageFix" result="shape"/>
<feGaussianBlur stdDeviation="150" result="effect1_foregroundBlur_1_14"/>
</filter>
<linearGradient id="paint0_linear_1_14" x1="733" y1="497" x2="733" y2="21.5" gradientUnits="userSpaceOnUse">
<stop stop-color="#0C6339" stop-opacity="0.83"/>
<stop offset="1" stop-color="#14ED85" stop-opacity="0"/>
</linearGradient>
</defs>
</svg>
