<svg width="24" height="25" viewBox="0 0 24 25" fill="none" xmlns="http://www.w3.org/2000/svg">
<g clip-path="url(#clip0_3_195)">
<g clip-path="url(#clip1_3_195)">
<path d="M14.983 3.5L15.106 3.506C17.12 3.72 18.633 4.178 20.072 5.179C20.2437 5.29882 20.3735 5.46951 20.443 5.667C22.319 10.982 22.816 15.654 21.894 17.947C20.891 19.952 19.288 21.5 17.5 21.5C16.56 21.5 15.243 19.904 14.723 18.531L14.703 18.536C15.541 18.405 16.393 18.213 17.275 17.962C17.4014 17.9259 17.5193 17.8652 17.6222 17.7835C17.7251 17.7018 17.8109 17.6006 17.8747 17.4858C17.9385 17.3709 17.9791 17.2446 17.994 17.1141C18.009 16.9835 17.9981 16.8513 17.962 16.725C17.9259 16.5987 17.8653 16.4807 17.7836 16.3778C17.7018 16.2749 17.6007 16.1891 17.4858 16.1253C17.3709 16.0615 17.2446 16.021 17.1141 16.006C16.9836 15.991 16.8514 16.0019 16.725 16.038C13.405 16.988 10.595 16.988 7.27502 16.038C7.01988 15.9651 6.74622 15.9965 6.51424 16.1253C6.28226 16.2541 6.11096 16.4699 6.03802 16.725C5.96509 16.9801 5.99649 17.2538 6.12533 17.4858C6.25417 17.7178 6.46988 17.8891 6.72502 17.962C7.45002 18.169 8.15602 18.335 8.85102 18.461L9.29502 18.535C8.81802 19.905 7.60002 21.5 6.66802 21.5C4.92502 21.5 3.39202 19.945 2.40102 17.856C1.56002 15.65 2.03202 10.988 3.81502 5.682C3.88072 5.48553 4.00581 5.31431 4.17302 5.192C5.56502 4.176 6.98002 3.717 8.89002 3.507C9.07117 3.48716 9.25429 3.5172 9.4196 3.59386C9.58492 3.67053 9.72614 3.79091 9.82802 3.942L9.89102 4.049L10.543 5.337L10.703 5.318C11.58 5.228 12.421 5.228 13.298 5.318L13.456 5.337L14.106 4.05C14.1788 3.90579 14.2853 3.78135 14.4166 3.68731C14.5479 3.59327 14.7001 3.53243 14.86 3.51L14.983 3.5ZM9.00002 9.5C8.52208 9.49998 8.05994 9.67111 7.69728 9.98241C7.33462 10.2937 7.09543 10.7246 7.02302 11.197L7.00502 11.351L7.00002 11.5L7.00502 11.65C7.03421 12.038 7.17596 12.4092 7.41292 12.7178C7.64988 13.0265 7.97174 13.2594 8.33906 13.3878C8.70639 13.5163 9.10321 13.5349 9.48091 13.4412C9.85861 13.3475 10.2008 13.1456 10.4655 12.8604C10.7302 12.5751 10.9059 12.2188 10.9711 11.8352C11.0363 11.4516 10.9882 11.0572 10.8326 10.7005C10.6771 10.3438 10.4209 10.0403 10.0953 9.82701C9.76982 9.61377 9.38916 9.50012 9.00002 9.5ZM15 9.5C14.5221 9.49998 14.0599 9.67111 13.6973 9.98241C13.3346 10.2937 13.0954 10.7246 13.023 11.197L13.005 11.351L13 11.5L13.005 11.65C13.0342 12.038 13.176 12.4092 13.4129 12.7178C13.6499 13.0265 13.9717 13.2594 14.3391 13.3878C14.7064 13.5163 15.1032 13.5349 15.4809 13.4412C15.8586 13.3475 16.2008 13.1456 16.4655 12.8604C16.7302 12.5751 16.9059 12.2188 16.9711 11.8352C17.0363 11.4516 16.9882 11.0572 16.8326 10.7005C16.6771 10.3438 16.4209 10.0403 16.0953 9.82701C15.7698 9.61377 15.3892 9.50012 15 9.5Z" fill="#B6B6B6"/>
</g>
</g>
<defs>
<clipPath id="clip0_3_195">
<rect width="24" height="24" fill="white" transform="translate(0 0.5)"/>
</clipPath>
<clipPath id="clip1_3_195">
<rect width="24" height="24" fill="white" transform="translate(0 0.5)"/>
</clipPath>
</defs>
</svg>
