<svg width="300" height="300" viewBox="0 0 300 300" fill="none" xmlns="http://www.w3.org/2000/svg">
<path d="M136.868 298.889C136.498 298.889 136.498 299.259 136.498 299.259C136.498 299.63 136.868 299.63 136.868 299.63C137.238 299.63 137.238 299.259 137.238 299.259C137.238 299.259 137.238 298.889 136.868 298.889ZM122.441 294.074C121.702 294.074 121.332 294.444 121.332 295.185C121.332 295.926 121.702 296.296 122.441 296.296C123.181 296.296 123.551 295.926 123.551 295.185C123.551 294.444 123.181 294.074 122.441 294.074ZM109.125 287.778C108.385 287.778 107.645 288.519 107.645 289.259C107.645 290 108.385 290.741 109.125 290.741C109.864 290.741 110.604 290 110.604 289.259C110.604 288.519 109.864 287.778 109.125 287.778ZM96.1776 280C95.0678 280 93.9581 281.111 93.9581 282.222C93.9581 283.333 95.0678 284.444 96.1776 284.444C97.2873 284.444 98.397 283.704 98.397 282.222C98.0271 280.741 97.2873 280 96.1776 280ZM83.9704 270.741C82.4908 270.741 81.381 271.852 81.381 273.333C81.381 274.815 82.4908 275.926 83.9704 275.926C85.4501 275.926 86.5598 274.815 86.5598 273.333C86.5598 271.852 85.4501 270.741 83.9704 270.741ZM72.873 260.37C71.0234 260.37 69.9137 261.852 69.9137 263.333C69.9137 265.185 71.3933 266.296 72.873 266.296C74.7226 266.296 75.8323 264.815 75.8323 263.333C75.8323 261.852 74.3527 260.37 72.873 260.37ZM62.8853 248.889C61.0358 248.889 59.1862 250.37 59.1862 252.593C59.1862 254.444 60.6658 256.296 62.8853 256.296C64.7349 256.296 66.5845 254.815 66.5845 252.593C66.2145 250.37 64.7349 248.889 62.8853 248.889ZM54.0074 236.296C51.7879 236.296 49.9383 238.148 49.9383 240.37C49.9383 242.593 51.7879 244.444 54.0074 244.444C56.2269 244.444 58.0764 242.593 58.0764 240.37C58.0764 238.148 56.2269 236.296 54.0074 236.296ZM51.418 227.407C51.418 224.815 49.1985 222.963 46.979 222.963C44.3896 222.963 42.5401 225.185 42.5401 227.407C42.5401 230 44.7596 231.852 46.979 231.852C49.1985 232.222 51.418 230 51.418 227.407ZM46.2392 213.704C46.2392 210.741 44.0197 208.519 41.0604 208.519C38.1011 208.519 35.8816 210.741 35.8816 213.704C35.8816 216.667 38.1011 218.889 41.0604 218.889C44.0197 218.889 46.2392 216.296 46.2392 213.704ZM43.2799 199.259C43.2799 196.296 40.6905 193.704 37.7312 193.704C34.7719 193.704 32.1825 196.296 32.1825 199.259C32.1825 202.222 34.7719 204.815 37.7312 204.815C40.6905 204.815 43.2799 202.222 43.2799 199.259ZM42.1702 184.444C42.1702 181.111 39.5808 178.148 35.8816 178.148C32.5524 178.148 29.5931 180.741 29.5931 184.444C29.5931 187.778 32.1825 190.741 35.8816 190.741C39.2108 190.741 42.1702 187.778 42.1702 184.444ZM36.2515 176.296C39.9507 176.296 42.91 173.333 42.91 169.63C42.91 165.926 39.9507 162.963 36.2515 162.963C32.5524 162.963 29.5931 165.926 29.5931 169.63C29.5931 173.333 32.5524 176.296 36.2515 176.296Z" fill="#2C56DD"/>
<path d="M31.0727 154.815C31.0727 158.889 34.402 161.852 38.1011 161.852C41.8002 161.852 45.1295 158.519 45.1295 154.815C45.1295 150.741 41.8002 147.778 38.1011 147.778C34.402 147.778 31.0727 150.741 31.0727 154.815ZM246.363 264.815C245.993 264.815 245.993 265.185 245.993 265.185C245.993 265.556 246.363 265.556 246.363 265.556C246.732 265.556 246.732 265.185 246.732 265.185C246.732 264.815 246.732 264.815 246.363 264.815ZM233.046 271.111C232.676 271.111 232.306 271.482 232.306 271.852C232.306 272.222 232.676 272.963 233.046 272.963C233.416 272.963 234.155 272.593 234.155 272.222C234.155 271.481 233.785 271.111 233.046 271.111ZM219.359 276.296C218.619 276.296 217.879 277.037 217.879 277.778C217.879 278.519 218.619 279.259 219.359 279.259C220.099 279.259 220.838 278.519 220.838 277.778C220.838 277.037 220.099 276.296 219.359 276.296ZM204.932 279.63C203.822 279.63 203.083 280.37 203.083 281.481C203.083 282.593 203.822 283.333 204.932 283.333C206.042 283.333 206.782 282.593 206.782 281.481C206.782 280.741 206.042 280 204.932 279.63ZM190.506 281.852C189.396 281.852 188.286 282.963 188.286 284.074C188.286 285.185 189.396 286.296 190.506 286.296C191.615 286.296 192.725 285.185 192.725 284.074C192.725 282.963 191.615 281.852 190.506 281.852ZM175.709 282.222C174.229 282.222 173.12 283.333 173.12 284.815C173.12 286.296 174.229 287.407 175.709 287.407C177.189 287.407 178.298 286.296 178.298 284.815C178.298 283.333 177.189 282.222 175.709 282.222ZM160.543 281.111C158.693 281.111 157.213 282.593 157.213 284.444C157.213 286.296 158.693 287.778 160.543 287.778C162.392 287.778 163.872 286.296 163.872 284.444C163.872 282.593 162.392 281.111 160.543 281.111ZM146.116 278.519C144.266 278.519 142.417 280 142.417 282.222C142.417 284.074 143.896 285.926 146.116 285.926C148.335 285.926 149.815 284.444 149.815 282.222C149.815 280 147.965 278.519 146.116 278.519ZM131.689 274.074C129.47 274.074 127.62 275.926 127.62 278.148C127.62 280.37 129.47 282.222 131.689 282.222C133.909 282.222 135.758 280.37 135.758 278.148C135.758 275.926 133.909 274.074 131.689 274.074ZM118.002 267.778C115.413 267.778 113.564 269.63 113.564 272.222C113.564 274.815 115.413 276.667 118.002 276.667C120.592 276.667 122.441 274.815 122.441 272.222C122.441 269.63 120.592 267.778 118.002 267.778ZM110.234 264.444C110.234 261.852 108.015 259.63 105.425 259.63C102.836 259.63 100.617 261.852 100.617 264.444C100.617 267.037 102.836 269.259 105.425 269.259C108.015 269.63 110.234 267.407 110.234 264.444ZM93.5882 249.63C90.6289 249.63 88.0395 252.222 88.0395 255.185C88.0395 258.148 90.6289 260.741 93.5882 260.741C96.5475 260.741 99.1369 258.148 99.1369 255.185C99.1369 252.222 96.5475 249.63 93.5882 249.63ZM83.6005 238.519C80.2713 238.519 77.6819 241.111 77.6819 244.444C77.6819 247.778 80.2713 250.37 83.6005 250.37C86.9297 250.37 89.5191 247.778 89.5191 244.444C89.1492 241.111 86.5598 238.519 83.6005 238.519ZM74.7226 238.889C78.0518 238.889 81.0111 235.926 81.0111 232.593C81.0111 229.259 78.0518 226.296 74.7226 226.296C71.3933 226.296 68.434 229.259 68.434 232.593C68.434 235.926 71.0234 238.889 74.7226 238.889ZM74.3527 219.63C74.3527 215.926 71.3933 212.963 67.6942 212.963C63.9951 212.963 61.0358 215.926 61.0358 219.63C61.0358 223.333 63.9951 226.296 67.6942 226.296C71.0234 226.296 74.3527 223.333 74.3527 219.63ZM299.63 162.963C299.26 162.963 299.26 162.963 299.26 163.333C299.26 163.704 299.63 163.704 299.63 163.704C300 163.704 300 163.333 300 163.333C300 162.963 299.63 162.963 299.63 162.963ZM295.191 176.667C294.821 176.667 294.451 177.037 294.451 177.407C294.451 177.778 294.821 178.148 295.191 178.148C295.561 178.148 295.931 177.778 295.931 177.407C295.931 177.037 295.561 176.667 295.191 176.667ZM289.272 190C288.533 190 288.163 190.37 288.163 191.111C288.163 191.852 288.533 192.593 289.272 192.593C290.012 192.593 290.382 192.222 290.382 191.481C290.382 190.37 290.012 190 289.272 190ZM281.874 202.593C281.134 202.593 280.395 203.333 280.395 204.074C280.395 204.815 281.134 205.556 281.874 205.556C282.614 205.556 283.354 204.815 283.354 204.074C283.724 203.333 282.984 202.593 281.874 202.593ZM273.366 214.444C272.256 214.444 271.517 215.185 271.517 216.667C271.517 218.148 272.256 218.519 273.736 218.519C274.846 218.519 275.586 217.778 275.586 216.667C275.216 215.185 274.476 214.444 273.366 214.444ZM263.379 225.185C261.899 225.185 260.789 226.296 260.789 227.778C260.789 229.259 261.899 230.37 263.379 230.37C264.858 230.37 265.968 229.259 265.968 227.778C265.968 226.296 264.858 225.185 263.379 225.185ZM252.651 234.815C251.171 234.815 249.692 235.926 249.692 237.778C249.692 239.259 250.801 240.741 252.651 240.741C254.131 240.741 255.61 239.63 255.61 237.778C255.24 235.926 254.131 234.815 252.651 234.815ZM240.444 242.963C238.594 242.963 237.115 244.444 237.115 246.296C237.115 248.148 238.594 249.63 240.444 249.63C242.293 249.63 243.773 248.148 243.773 246.296C243.773 244.444 242.293 242.963 240.444 242.963ZM227.497 250C225.647 250 223.798 251.481 223.798 253.704C223.798 255.556 225.277 257.407 227.497 257.407C229.346 257.407 231.196 255.926 231.196 253.704C231.196 251.481 229.716 250 227.497 250ZM213.81 255.185C211.591 255.185 209.741 257.037 209.741 259.259C209.741 261.481 211.591 263.333 213.81 263.333C216.03 263.333 217.879 261.481 217.879 259.259C217.879 256.667 216.03 255.185 213.81 255.185ZM199.383 258.148C196.794 258.148 194.945 260 194.945 262.593C194.945 265.185 196.794 267.037 199.383 267.037C201.973 267.037 203.822 265.185 203.822 262.593C203.822 260.37 201.973 258.148 199.383 258.148ZM184.587 259.63C181.998 259.63 179.778 261.852 179.778 264.444C179.778 267.037 181.998 269.259 184.587 269.259C187.176 269.259 189.396 267.037 189.396 264.444C189.396 261.481 187.176 259.63 184.587 259.63ZM174.969 264.074C174.969 261.111 172.75 258.889 169.79 258.889C166.831 258.889 164.612 261.111 164.612 264.074C164.612 267.037 166.831 269.259 169.79 269.259C172.75 269.259 174.969 267.037 174.969 264.074ZM160.543 261.852C160.543 258.889 157.953 256.296 154.994 256.296C152.035 256.296 149.445 258.889 149.445 261.852C149.445 264.815 152.035 267.407 154.994 267.407C158.323 267.407 160.543 265.185 160.543 261.852ZM146.856 257.778C146.856 254.444 144.266 251.852 140.937 251.852C137.608 251.852 135.018 254.444 135.018 257.778C135.018 261.111 137.608 263.704 140.937 263.704C144.266 263.704 146.856 261.111 146.856 257.778ZM133.539 251.852C133.539 248.148 130.58 245.185 126.88 245.185C123.181 245.185 120.222 248.148 120.222 251.852C120.222 255.556 123.181 258.519 126.88 258.519C130.58 258.148 133.539 255.556 133.539 251.852ZM265.228 54.0741C265.598 54.0741 265.598 54.0741 265.598 53.7037C265.598 53.3333 265.598 53.3333 265.228 53.3333C264.858 53.3333 264.858 53.3333 265.228 54.0741ZM272.256 67.7778C272.626 67.7778 272.996 67.4074 272.996 67.037C272.996 66.6667 272.626 66.2963 272.256 66.2963C271.887 66.2963 271.517 66.6667 271.517 67.037C271.517 67.4074 271.887 67.7778 272.256 67.7778ZM277.805 81.8519C278.545 81.8519 278.915 81.4815 278.915 80.7407C278.915 80 278.545 79.6296 277.805 79.6296C277.065 79.6296 276.695 80 276.695 80.7407C276.326 81.4815 277.065 81.8519 277.805 81.8519ZM281.504 96.6667C282.244 96.6667 282.984 95.9259 282.984 95.1852C282.984 94.4445 282.244 93.7037 281.504 93.7037C280.764 93.7037 280.025 94.4445 280.025 95.1852C280.025 95.9259 280.764 96.6667 281.504 96.6667ZM282.244 109.63C282.244 110.741 282.984 111.481 284.094 111.481C285.203 111.481 285.943 110.741 285.943 109.63C285.943 108.519 285.203 107.778 284.094 107.778C282.984 107.778 282.244 108.519 282.244 109.63ZM285.203 122.222C283.724 122.222 282.614 123.333 282.614 124.815C282.614 126.296 283.724 127.407 285.203 127.407C286.683 127.407 287.793 126.296 287.793 124.815C287.423 123.333 286.313 122.222 285.203 122.222ZM284.464 136.667C282.984 136.667 281.504 137.778 281.504 139.63C281.504 141.111 282.614 142.593 284.464 142.593C285.943 142.593 287.423 141.481 287.423 139.63C287.423 137.778 285.943 136.667 284.464 136.667ZM282.244 150.741C280.395 150.741 278.915 152.222 278.915 154.074C278.915 155.926 280.395 157.407 282.244 157.407C284.094 157.407 285.573 155.926 285.573 154.074C285.573 152.222 284.094 150.741 282.244 150.741ZM281.874 168.519C281.874 166.667 280.395 164.815 278.175 164.815C276.326 164.815 274.476 166.296 274.476 168.519C274.476 170.37 275.956 172.222 278.175 172.222C280.025 172.222 281.874 170.37 281.874 168.519ZM272.256 178.148C270.037 178.148 268.187 180 268.187 182.222C268.187 184.444 270.037 186.296 272.256 186.296C274.476 186.296 276.326 184.444 276.326 182.222C276.326 180 274.476 178.148 272.256 178.148ZM264.488 190.37C261.899 190.37 260.049 192.222 260.049 194.815C260.049 197.407 261.899 199.259 264.488 199.259C267.078 199.259 268.927 197.407 268.927 194.815C268.927 192.222 267.078 190.37 264.488 190.37ZM255.24 201.481C252.651 201.481 250.432 203.704 250.432 206.296C250.432 208.889 252.651 211.111 255.24 211.111C257.83 211.111 260.049 208.889 260.049 206.296C260.049 203.704 257.83 201.481 255.24 201.481ZM244.513 211.481C241.554 211.481 239.334 213.704 239.334 216.667C239.334 219.63 241.554 221.852 244.513 221.852C247.472 221.852 249.692 219.63 249.692 216.667C249.692 213.704 247.472 211.481 244.513 211.481ZM232.676 220C229.716 220 227.127 222.593 227.127 225.556C227.127 228.519 229.716 231.111 232.676 231.111C235.635 231.111 238.224 228.519 238.224 225.556C238.224 222.593 235.635 220 232.676 220ZM219.729 226.667C216.4 226.667 213.81 229.259 213.81 232.593C213.81 235.926 216.4 238.519 219.729 238.519C223.058 238.519 225.647 235.926 225.647 232.593C225.647 229.63 223.058 226.667 219.729 226.667ZM205.672 231.852C201.973 231.852 199.014 234.815 199.014 238.519C199.014 242.222 201.973 245.185 205.672 245.185C209.371 245.185 212.33 242.222 212.33 238.519C212.33 234.815 209.371 231.852 205.672 231.852ZM163.502 0.740741C163.872 0.740741 163.872 0.37037 163.872 0.37037C163.872 0 163.872 0 163.502 0C163.132 0 163.132 0 163.132 0.37037C163.132 0.740741 163.502 0.740741 163.502 0.740741ZM177.928 5.55556C178.298 5.55556 178.668 5.18519 178.668 4.81481C178.668 4.44444 178.298 4.07407 177.559 4.07407C177.189 4.07407 176.819 4.44444 176.819 4.81481C176.819 5.18519 177.189 5.55556 177.928 5.55556ZM191.245 11.8519C191.985 11.8519 192.355 11.4815 192.355 10.7407C192.355 10 191.985 9.62963 191.245 9.62963C190.506 9.62963 190.136 10 190.136 10.7407C190.136 11.4815 190.875 11.8519 191.245 11.8519ZM204.192 19.6296C204.932 19.6296 205.672 18.8889 205.672 18.1481C205.672 17.4074 204.932 16.6667 204.192 16.6667C203.453 16.6667 202.713 17.4074 202.713 18.1481C202.713 18.8889 203.453 19.6296 204.192 19.6296ZM216.4 28.5185C217.509 28.5185 218.249 27.7778 218.249 26.6667C218.249 25.5556 217.509 24.8148 216.4 24.8148C215.29 24.8148 214.55 25.5556 214.55 26.6667C214.55 27.7778 215.29 28.5185 216.4 28.5185ZM227.497 38.8889C228.977 38.8889 230.086 37.7778 230.086 36.2963C230.086 34.8148 228.977 33.7037 227.497 33.7037C226.017 33.7037 224.908 34.8148 224.908 36.2963C225.277 37.7778 226.387 38.8889 227.497 38.8889ZM237.485 50.3704C238.964 50.3704 240.444 49.2593 240.444 47.4074C240.444 45.9259 239.334 44.4444 237.485 44.4444C236.005 44.4444 234.525 45.5556 234.525 47.4074C234.895 48.8889 236.005 50.3704 237.485 50.3704ZM246.363 62.5926C248.212 62.5926 249.692 61.1111 249.692 59.2593C249.692 57.4074 248.212 55.9259 246.363 55.9259C244.513 55.9259 243.033 57.4074 243.033 59.2593C243.403 61.1111 244.513 62.5926 246.363 62.5926ZM253.761 75.9259C255.61 75.9259 257.46 74.4444 257.46 72.2222C257.46 70 255.98 68.5185 253.761 68.5185C251.911 68.5185 250.062 70 250.062 72.2222C250.062 74.4444 251.541 75.9259 253.761 75.9259ZM255.24 86.2963C255.24 88.5185 257.09 90.3704 259.309 90.3704C261.529 90.3704 263.379 88.5185 263.379 86.2963C263.379 84.0741 261.529 82.2222 259.309 82.2222C257.09 82.2222 255.24 84.0741 255.24 86.2963ZM258.2 100.741C258.2 103.333 260.049 105.185 262.639 105.185C265.228 105.185 267.078 103.333 267.078 100.741C267.078 98.1482 265.228 96.2963 262.639 96.2963C260.419 96.2963 258.2 98.1482 258.2 100.741ZM259.679 115.556C259.679 118.148 261.899 120.37 264.488 120.37C267.078 120.37 269.297 118.148 269.297 115.556C269.297 112.963 267.078 110.741 264.488 110.741C261.899 110.741 259.679 112.963 259.679 115.556ZM269.297 130.37C269.297 127.407 267.078 125.185 264.118 125.185C261.159 125.185 258.94 127.407 258.94 130.37C258.94 133.333 261.159 135.556 264.118 135.556C267.078 135.556 269.297 133.333 269.297 130.37ZM267.448 145.185C267.448 142.222 264.858 139.63 261.899 139.63C258.94 139.63 256.35 142.222 256.35 145.185C256.35 148.148 258.94 150.741 261.899 150.741C265.228 150.741 267.448 148.148 267.448 145.185ZM263.748 159.259C263.748 155.926 261.159 153.333 257.83 153.333C254.501 153.333 251.911 155.926 251.911 159.259C251.911 162.593 254.501 165.185 257.83 165.185C261.159 165.556 263.748 162.593 263.748 159.259ZM251.911 166.667C248.212 166.667 245.253 169.63 245.253 173.333C245.253 177.037 248.212 180 251.911 180C255.61 180 258.57 177.037 258.57 173.333C258.57 169.259 255.61 166.667 251.911 166.667ZM54.0074 35.1852C54.3773 35.1852 54.3773 35.1852 54.3773 34.8148C54.3773 34.4444 54.3773 34.4444 54.0074 34.4444C53.6375 34.4444 53.6375 34.4444 53.6375 34.8148C53.6375 34.8148 53.6375 35.1852 54.0074 35.1852ZM67.3243 28.5185C67.6942 28.5185 68.0641 28.1481 68.0641 27.7778C68.0641 27.4074 67.6942 27.037 67.3243 27.037C66.9544 27.037 66.5845 27.4074 66.5845 27.7778C66.2146 28.1481 66.5845 28.5185 67.3243 28.5185ZM81.0111 23.7037C81.7509 23.7037 82.1208 23.3333 82.1208 22.5926C82.1208 21.8519 81.7509 21.4815 81.0111 21.4815C80.2713 21.4815 79.9014 21.8519 79.9014 22.5926C79.9014 22.963 80.2713 23.7037 81.0111 23.7037ZM95.4377 20C96.1776 20 96.9174 19.2593 96.9174 18.5185C96.9174 17.7778 96.1776 17.037 95.4377 17.037C94.6979 17.037 93.9581 17.7778 93.9581 18.5185C93.5882 19.2593 94.328 20 95.4377 20ZM109.864 17.7778C110.974 17.7778 111.714 17.037 111.714 15.9259C111.714 14.8148 110.974 14.0741 109.864 14.0741C108.755 14.0741 108.015 14.8148 108.015 15.9259C108.015 17.037 108.755 17.7778 109.864 17.7778ZM124.661 17.4074C126.141 17.4074 127.25 16.2963 127.25 14.8148C127.25 13.3333 126.141 12.2222 124.661 12.2222C123.181 12.2222 122.072 13.3333 122.072 14.8148C122.441 16.2963 123.551 17.4074 124.661 17.4074ZM139.457 18.5185C140.937 18.5185 142.417 17.4074 142.417 15.5556C142.417 14.0741 141.307 12.5926 139.457 12.5926C137.978 12.5926 136.498 13.7037 136.498 15.5556C136.868 17.037 137.978 18.5185 139.457 18.5185ZM154.254 21.1111C156.104 21.1111 157.583 19.6296 157.583 17.7778C157.583 15.9259 156.104 14.4444 154.254 14.4444C152.404 14.4444 150.925 15.9259 150.925 17.7778C150.925 19.6296 152.404 21.1111 154.254 21.1111ZM168.681 25.5556C170.53 25.5556 172.38 24.0741 172.38 21.8519C172.38 19.6296 170.9 18.1481 168.681 18.1481C166.461 18.1481 164.982 19.6296 164.982 21.8519C164.982 23.7037 166.461 25.5556 168.681 25.5556ZM182.367 31.8519C184.587 31.8519 186.437 30 186.437 27.7778C186.437 25.5556 184.587 23.7037 182.367 23.7037C180.148 23.7037 178.298 25.5556 178.298 27.7778C178.298 30 180.148 31.8519 182.367 31.8519ZM190.506 35.5556C190.506 38.1482 192.355 40 194.945 40C197.534 40 199.383 38.1482 199.383 35.5556C199.383 32.963 197.534 31.1111 194.945 31.1111C192.355 31.1111 190.506 32.963 190.506 35.5556ZM206.782 49.6296C209.371 49.6296 211.591 47.4074 211.591 44.8148C211.591 42.2222 209.371 40 206.782 40C204.192 40 201.973 42.2222 201.973 44.8148C201.603 47.4074 203.822 49.6296 206.782 49.6296ZM216.769 60.7407C219.729 60.7407 221.948 58.5185 221.948 55.5556C221.948 52.5926 219.729 50.3704 216.769 50.3704C213.81 50.3704 211.591 52.5926 211.591 55.5556C211.591 58.1482 214.18 60.7407 216.769 60.7407ZM225.647 61.8519C222.688 61.8519 220.099 64.4445 220.099 67.4074C220.099 70.3704 222.688 72.963 225.647 72.963C228.607 72.963 231.196 70.3704 231.196 67.4074C231.566 64.0741 228.977 61.8519 225.647 61.8519ZM226.757 80.3704C226.757 83.7037 229.346 86.2963 232.676 86.2963C236.005 86.2963 238.594 83.7037 238.594 80.3704C238.594 77.037 236.005 74.4444 232.676 74.4444C229.716 74.4444 226.757 77.037 226.757 80.3704ZM231.936 94.0741C231.936 97.7778 234.895 100.741 238.594 100.741C242.293 100.741 245.253 97.7778 245.253 94.0741C245.253 90.3704 242.293 87.4074 238.964 87.4074C234.895 87.7778 231.936 90.7407 231.936 94.0741ZM241.924 101.852C238.224 101.852 234.895 104.815 234.895 108.889C234.895 112.593 237.855 115.926 241.924 115.926C245.623 115.926 248.952 112.963 248.952 108.889C248.952 104.815 245.623 101.852 241.924 101.852ZM0.739827 135.926C0.369914 135.926 0 136.296 0 136.667C0 137.037 0.369914 137.407 0.739827 137.407C1.10974 137.407 1.47965 137.037 1.47965 136.667C1.47965 136.296 1.47965 135.926 0.739827 135.926ZM5.17879 120.741C4.43896 120.741 3.69914 121.481 3.69914 122.222C3.69914 122.963 4.43896 123.704 5.17879 123.704C5.91862 123.704 6.65845 122.963 6.65845 122.222C6.65845 121.481 5.91862 120.741 5.17879 120.741ZM13.3169 108.519C13.3169 107.407 12.2072 106.296 11.0974 106.296C9.98767 106.296 8.87793 107.407 8.87793 108.519C8.87793 110 9.98767 111.111 11.0974 111.111C12.2072 111.111 13.3169 110 13.3169 108.519ZM18.4957 98.8889C20.3453 98.8889 21.455 97.4074 21.455 95.9259C21.455 94.4444 19.9753 92.5926 18.4957 92.5926C16.6461 92.5926 15.5364 94.0741 15.5364 95.5556C15.5364 97.4074 16.6461 98.8889 18.4957 98.8889ZM27.0037 87.4074C29.2232 87.4074 30.7028 85.5556 30.7028 83.7037C30.7028 81.4815 28.8533 80 27.0037 80C25.1541 80 23.3046 81.8519 23.3046 83.7037C23.3046 85.5556 24.7842 87.4074 27.0037 87.4074ZM36.9914 77.037C39.5808 77.037 41.4303 74.8148 41.4303 72.5926C41.4303 70 39.2109 68.1481 36.9914 68.1481C34.7719 68.1481 32.5524 70.3704 32.5524 72.5926C32.1825 74.8148 34.402 77.037 36.9914 77.037ZM47.7189 67.7778C50.6782 67.7778 52.8977 65.5556 53.2676 62.5926C53.2676 59.6296 51.0481 57.4074 48.0888 57.037C45.1295 57.037 42.91 59.2593 42.5401 62.2222C42.5401 65.1852 44.7596 67.7778 47.7189 67.7778ZM59.5561 59.6296C62.8853 59.6296 65.8446 57.037 65.8446 53.7037C65.8446 50.3704 63.2552 47.4074 59.926 47.4074C56.5968 47.4074 53.6375 50 53.6375 53.3333C53.6375 57.037 56.2269 59.6296 59.5561 59.6296ZM72.5031 52.963C76.2022 52.963 79.5314 50 79.5314 45.9259C79.5314 41.8519 76.5721 38.8889 72.5031 38.8889C68.8039 38.8889 65.4747 41.8519 65.4747 45.9259C65.8446 50 68.8039 52.963 72.5031 52.963Z" fill="#2C56DD"/>
<path d="M86.5598 48.1482C90.2589 48.1482 93.5882 45.1852 93.9581 41.4815C96.5475 45.1852 101.726 46.2963 105.795 43.7037C106.905 42.963 108.015 41.8519 108.385 40.7407C111.344 44.8148 117.263 45.5556 121.332 42.5926C121.702 42.2222 122.072 41.8519 122.441 41.4815C125.771 45.9259 131.689 47.037 136.128 44.0741C136.498 44.8148 136.868 45.1852 137.238 45.5556C134.649 45.9259 132.429 47.037 130.58 48.5185C126.141 44.4445 119.482 44.8148 115.413 49.2593C115.043 49.6296 115.043 50 114.673 50C112.824 48.5185 110.604 47.7778 108.385 47.7778C104.316 47.7778 100.986 50 99.1369 53.7037C94.6979 50.7407 88.7793 51.8519 85.82 56.2963C85.0802 57.4074 84.7102 58.5185 84.3403 59.6296C80.2713 57.037 74.7226 58.5185 72.1332 62.5926C71.3933 64.0741 70.6535 65.5556 70.6535 67.037C66.5845 64.8148 61.7756 65.9259 59.1862 70C58.4464 71.1111 58.0765 72.5926 58.0765 74.0741C58.0765 74.8148 58.0765 75.5556 58.4464 76.2963C57.3366 75.5556 55.857 75.1852 54.3773 75.1852C50.3083 75.1852 46.6091 78.5185 46.6091 82.963C46.6091 87.037 49.9384 90.7407 54.3773 90.7407C58.4464 90.7407 62.1455 87.4074 62.1455 82.963C62.1455 82.2222 62.1455 81.8519 61.7756 81.1111C65.4747 83.7037 70.6535 82.5926 73.2429 78.8889C73.9827 77.7778 74.3527 76.2963 74.7226 74.8148C76.2022 75.5556 77.6819 76.2963 79.5314 76.2963H79.9014C78.0518 78.1482 76.9421 80.3704 76.5721 82.963C71.3934 81.8519 66.2146 85.5556 65.1048 90.7407C65.1048 91.4815 65.1048 91.8519 65.1048 92.5926C65.1048 92.963 65.1048 93.3333 65.1048 93.7037C64.7349 93.7037 64.365 93.7037 63.9951 93.7037C58.8163 93.7037 54.7472 97.7778 54.7472 102.963C54.7472 104.074 54.7472 104.815 55.1171 105.926C54.7472 105.926 54.7472 105.926 54.7472 105.926C49.9384 105.926 46.2392 109.63 46.2392 114.444C46.2392 115.926 46.6091 117.778 47.349 118.889C47.349 118.889 47.349 118.889 46.979 118.889C42.5401 118.889 38.8409 122.593 38.8409 127.037C38.8409 129.259 39.9507 131.481 41.4303 132.963H41.0604C36.6215 132.963 33.2922 136.296 33.2922 140.741C33.2922 145.185 36.6215 148.519 41.0604 148.519C45.4994 148.519 48.8286 145.185 48.8286 140.741C48.8286 138.519 48.0888 136.667 46.6091 135.185H46.979C49.1985 135.185 51.418 134.074 52.8977 132.593V132.963C52.8977 134.815 53.6375 137.037 54.7472 138.519C49.9384 140.37 47.7189 145.185 49.1985 150C49.5684 151.481 50.6782 152.963 51.7879 153.704C47.349 155.556 45.4994 160.741 47.7189 165.185C48.4587 167.037 49.9384 168.519 51.418 169.259C47.349 171.111 45.8693 176.296 47.7189 180.37C48.8286 182.593 50.6782 184.074 53.2676 184.815C49.5684 186.667 48.0888 191.482 49.9384 195.185C51.418 197.778 54.0074 199.259 56.9667 199.259C57.3366 199.259 58.0765 199.259 58.4464 199.259C54.7472 200.37 52.5278 204.444 54.0074 208.148C55.1171 211.852 59.1862 214.074 62.8853 212.593C66.5845 211.482 68.804 207.407 67.3243 203.704C66.2146 200.741 63.6252 198.889 60.2959 198.889C59.926 198.889 59.5561 198.889 58.8163 198.889C62.1455 197.778 64.365 194.815 64.365 191.482C64.365 191.111 64.365 191.111 64.365 191.111C65.4747 192.593 67.3243 193.333 68.804 193.704C65.8446 197.407 66.2146 202.593 69.9137 205.556C71.3933 207.037 73.2429 207.778 75.4624 207.407H75.8323C73.2429 211.111 73.9827 215.926 77.6819 218.889C79.1615 220 80.6412 220.37 82.4908 220.37C83.2306 220.37 83.9704 220.37 84.7102 220C82.4908 223.704 83.2306 228.148 86.9297 230.741C88.0395 231.482 89.5191 231.852 90.9988 231.852C92.8483 231.852 94.328 231.111 95.8077 230C93.2183 232.963 93.5882 237.778 96.5475 240.37C99.5068 242.963 104.316 242.593 106.905 239.63C109.494 236.667 109.125 232.593 106.535 230C107.645 230 108.385 230 109.494 229.63C109.494 232.963 111.344 235.926 114.303 237.407C113.933 237.407 113.564 237.407 112.824 237.407C109.125 237.407 105.795 240.37 105.795 244.444C105.795 248.148 108.755 251.482 112.824 251.482C116.523 251.482 119.852 248.519 119.852 244.444C119.852 241.852 118.372 239.63 116.153 238.148C116.893 238.148 117.633 238.519 118.372 238.519C120.222 238.519 121.702 238.148 123.181 237.037C123.551 241.852 127.62 245.185 132.429 244.815C134.649 244.815 136.498 243.704 137.978 242.222C138.718 246.667 142.787 249.63 147.226 248.889C149.815 248.519 152.035 247.037 153.144 244.815C153.884 248.889 157.953 251.852 162.022 250.741C165.351 250 167.941 247.407 168.311 244.074C168.681 248.148 172.01 251.111 176.079 250.741C180.148 250.37 183.107 247.037 182.737 242.963C182.367 239.259 179.408 236.296 175.709 236.296C176.449 235.556 176.819 234.815 177.189 234.074C179.408 236.667 183.107 237.407 186.437 236.296C183.107 238.519 182.367 242.593 184.587 245.926C186.806 249.259 190.875 250 194.205 247.778C197.534 245.556 198.274 241.482 196.054 238.148C194.945 236.296 192.725 235.185 190.506 235.185C189.766 235.185 189.026 235.185 188.656 235.556C190.875 234.444 192.355 232.222 192.725 230C194.205 231.481 196.054 231.852 198.274 231.852C203.083 231.852 206.782 228.148 206.782 223.333C208.261 224.444 209.741 224.815 211.591 224.815C216.03 224.815 219.729 221.111 219.729 216.667C219.729 215.926 219.729 215.185 219.359 214.444C222.688 216.667 227.497 215.926 230.086 212.222C231.936 209.259 231.936 205.556 229.716 202.963C231.196 204.074 232.676 204.815 234.525 204.815C238.594 204.815 241.924 201.481 241.924 197.407C241.924 193.333 238.594 190 234.525 190C232.676 190 230.826 190.741 229.347 192.222C229.347 191.111 229.347 190.37 228.977 189.259C232.306 189.259 235.265 187.407 236.745 184.444C236.745 184.815 236.745 185.185 236.745 185.926C236.745 189.63 239.704 192.963 243.773 192.963C247.842 192.963 250.802 190 250.802 185.926C250.802 182.222 247.842 178.889 243.773 178.889C241.184 178.889 238.964 180.37 237.485 182.593C237.485 181.852 237.855 181.111 237.855 180.37C237.855 178.519 237.485 177.037 236.375 175.556C241.184 175.185 244.513 171.111 244.143 166.296C244.143 164.074 243.033 162.222 241.554 160.741C245.993 160 248.952 155.926 248.212 151.482C247.842 148.889 246.363 146.667 244.143 145.556C248.212 144.815 251.171 140.741 250.062 136.667C249.322 133.333 246.732 130.741 243.403 130.37C247.472 130 250.432 126.667 250.432 122.593C250.432 118.519 246.732 115.556 242.663 115.556C238.594 115.926 235.635 119.259 235.635 123.333C236.005 127.037 238.594 129.63 241.924 130C237.855 130.37 234.525 133.704 234.895 138.148C234.895 140.741 236.745 143.333 238.964 144.444C234.525 145.185 231.566 149.259 232.306 153.704C232.676 155.185 233.416 157.037 234.525 158.148C229.716 158.889 226.757 162.963 227.127 167.778C227.127 168.889 227.497 170 228.237 171.111C223.428 171.482 219.729 175.185 219.729 180C219.729 180.741 219.729 181.852 220.099 182.593H219.729C214.55 182.593 210.481 186.667 210.481 191.852C210.481 192.222 210.481 192.222 210.481 192.593C210.111 192.593 209.371 192.593 209.001 192.593C204.192 192.593 200.123 196.296 199.384 201.111C198.644 200.741 197.534 200.741 196.794 200.741C192.725 200.741 189.396 202.963 187.546 206.667C183.847 203.704 178.298 204.074 174.969 207.778C174.599 208.519 174.229 208.889 173.859 209.63C170.53 205.926 164.982 205.926 161.282 209.259C160.543 210 159.803 210.741 159.433 211.481C156.474 207.778 150.555 207.037 146.856 210C146.486 210.37 146.116 210.37 146.116 210.741C143.896 206.296 138.718 204.074 134.279 206.296C133.909 206.667 133.169 206.667 132.799 207.037C131.689 202.222 126.88 199.259 122.072 200.37C121.332 200.37 120.962 200.741 120.222 201.111C120.222 196.296 116.153 192.222 110.974 192.593C110.604 192.593 110.234 192.593 109.864 192.593C110.974 187.778 108.015 182.963 103.206 181.852C102.466 181.852 102.096 181.482 101.356 181.482C103.206 177.037 101.356 171.852 96.9174 169.63C96.5475 169.63 96.1776 169.259 95.8077 169.259C98.767 165.185 98.0271 159.63 94.328 156.667C93.9581 156.296 93.5882 156.296 93.2183 155.926C97.2873 152.963 98.0271 147.407 94.6979 143.333C94.328 142.963 93.9581 142.593 93.5882 142.222C95.8076 141.111 97.6572 138.889 98.397 136.296C99.1369 133.704 98.3971 131.111 96.9174 128.889C101.726 127.778 104.686 122.963 103.576 118.148C103.576 117.778 103.576 117.407 103.206 117.037C108.015 117.407 112.454 113.333 112.454 108.519C112.454 107.778 112.454 107.407 112.454 106.667C117.263 107.778 122.072 104.815 123.181 100C123.181 99.6296 123.181 99.2593 123.551 98.5185C127.99 100.741 133.169 99.2593 135.758 94.8148C135.758 94.4445 136.128 94.0741 136.128 93.7037C137.978 95.5556 140.567 96.2963 143.157 95.9259C145.746 95.5556 148.335 94.0741 149.815 91.8519C152.774 95.9259 158.323 97.037 162.022 94.0741C162.392 93.7037 162.762 93.3333 163.132 92.963C164.982 97.4074 170.16 99.6296 174.599 97.7778C175.339 97.4074 175.709 97.4074 176.079 97.037C176.449 99.6296 178.298 101.852 180.518 103.333C182.367 104.444 184.587 104.815 186.806 104.074C187.176 104.444 187.176 104.815 187.546 105.185C187.546 107.037 188.286 108.889 189.766 110.37C189.766 110.37 189.766 110.37 190.136 110.37C194.575 115.185 205.302 126.667 203.453 142.222C203.083 145.926 204.932 148.148 207.892 145.185C224.538 127.037 221.948 104.815 221.578 102.222C221.578 100.741 221.208 98.8889 220.469 97.4074C220.838 96.2963 220.838 95.5556 220.838 94.4445C220.838 90 218.619 85.5556 215.29 82.963C215.29 82.2222 215.66 81.1111 215.66 80.3704C215.66 74.8148 212.33 69.6296 207.152 67.7778C207.152 61.4815 202.343 55.9259 196.054 55.1852C194.945 49.2593 189.766 44.8148 183.847 44.8148C183.477 44.8148 183.477 44.8148 183.107 44.8148C181.628 40 176.819 36.6667 172.01 36.6667C170.9 36.6667 170.16 36.6667 169.051 37.037C166.461 31.4815 159.803 28.8889 154.254 31.4815C154.254 31.4815 154.254 31.4815 153.884 31.4815C150.925 26.2963 144.266 24.8148 139.457 27.7778C139.088 28.1482 138.718 28.1482 138.348 28.5185C135.019 24.0741 129.1 22.963 124.661 26.2963C123.921 26.6667 123.181 27.4074 122.811 28.1482C119.482 24.0741 113.933 23.7037 109.864 26.6667C108.755 27.4074 108.015 28.8889 107.275 30C104.316 26.2963 99.1369 25.9259 95.4377 28.8889C93.9581 30.3704 92.8483 32.2222 92.4784 34.4445C89.889 31.1111 85.0802 30.3704 81.7509 32.963C78.4217 35.5556 77.6819 40.3704 80.2713 43.7037C81.7509 47.037 83.9704 48.1482 86.5598 48.1482ZM35.1418 245.556C34.7719 245.556 34.402 245.926 34.402 246.296C34.402 246.667 34.7719 247.037 35.1418 247.037C35.5117 247.037 35.8816 246.667 35.8816 246.296C35.5117 245.926 35.5117 245.556 35.1418 245.556ZM28.1134 231.852C27.3736 231.852 27.0037 232.222 27.0037 232.963C27.0037 233.704 27.3736 234.074 28.1134 234.074C28.8533 234.074 29.2232 233.704 29.2232 232.963C29.2232 232.222 28.8533 231.852 28.1134 231.852ZM22.5647 217.407C21.455 217.407 20.7152 218.148 20.7152 219.259C20.7152 220.37 21.455 221.111 22.5647 221.111C23.6745 221.111 24.4143 220.37 24.4143 219.259C24.4143 218.148 23.6745 217.407 22.5647 217.407ZM18.8656 202.593C17.386 202.593 16.6461 203.704 16.6461 204.815C16.6461 206.296 17.7559 207.037 18.8656 207.037C20.3453 207.037 21.0851 205.926 21.0851 204.815C21.0851 203.704 19.9753 202.593 18.8656 202.593ZM19.2355 190.37C19.2355 188.889 17.7559 187.407 16.2762 187.407C14.7966 187.407 13.3169 188.889 13.3169 190.37C13.3169 191.852 14.7966 193.333 16.2762 193.333C17.7559 193.333 19.2355 191.852 19.2355 190.37ZM18.8656 175.185C18.8656 173.333 17.386 171.481 15.1665 171.481C13.3169 171.481 11.4673 172.963 11.4673 175.185C11.4673 177.037 12.947 178.889 15.1665 178.889C17.386 178.889 18.8656 177.407 18.8656 175.185C18.8656 175.556 18.8656 175.556 18.8656 175.185ZM11.8372 160.37C11.8372 162.593 13.6868 164.444 15.9063 164.444C18.1258 164.444 19.9753 162.593 19.9753 160.37C19.9753 158.148 18.1258 156.296 15.9063 156.296C13.6868 156.296 11.8372 158.148 11.8372 160.37ZM18.1258 150.37C20.7152 150.37 22.9347 148.148 22.9347 145.556C22.9347 142.963 20.7152 140.741 18.1258 140.741C15.5364 140.741 13.3169 142.963 13.3169 145.556C13.3169 148.519 15.5364 150.37 18.1258 150.37ZM22.1948 126.296C19.2355 126.296 17.016 128.519 17.016 131.481C17.016 134.444 19.2355 136.667 22.1948 136.667C25.1541 136.667 27.3736 134.444 27.3736 131.481C27.3736 128.519 25.1541 126.296 22.1948 126.296ZM28.1134 123.704C31.4427 123.704 34.0321 121.111 34.0321 117.778C34.0321 114.444 31.4427 111.852 28.1134 111.852C24.7842 111.852 22.1948 114.444 22.1948 117.778C22.1948 121.111 24.7842 123.704 28.1134 123.704Z" fill="#2C56DD"/>
<path d="M35.8816 111.481C39.5808 111.481 42.5401 108.519 42.5401 104.815C42.5401 101.111 39.5808 98.1482 35.8816 98.1482C32.1825 98.1482 29.2232 101.111 29.2232 104.815C29.2232 108.519 32.1825 111.481 35.8816 111.481ZM52.1578 93.3333C52.1578 89.2593 48.8286 86.2963 45.1295 86.2963C41.4303 86.2963 38.1011 89.6296 38.1011 93.3333C38.1011 97.4074 41.4303 100.37 45.1295 100.37C48.8286 100.37 52.1578 97.4074 52.1578 93.3333Z" fill="#2C56DD"/>
</svg>
